Coordinates
version=1
nRows=17
nColumns=24
inDegrees=yes

Units are S.I. units (second, meters, Newtons, ...)
Angles are in degrees.

endheader
time	pelvis_tilt	pelvis_list	pelvis_rotation	pelvis_tx	pelvis_ty	pelvis_tz	hip_flexion_r	hip_adduction_r	hip_rotation_r	knee_angle_r	ankle_angle_r	subtalar_angle_r	mtp_angle_r	hip_flexion_l	hip_adduction_l	hip_rotation_l	knee_angle_l	ankle_angle_l	subtalar_angle_l	mtp_angle_l	lumbar_extension	lumbar_bending	lumbar_rotation
      5.64000000	      5.86959158	      0.82843013	      1.10775335	     -2.56288818	      0.92056089	      0.18952590	     13.42951955	      3.39651727	     -9.00324257	      1.30172792	      5.20193708	      1.19138723	      0.00000000	    -17.52527161	      5.28871406	     -1.68409157	    -10.37736602	     16.32984045	      1.05726443	      0.00000000	    -23.08129520	      0.73936037	     -6.97429359
      5.65000000	      5.89721260	      0.71644836	      1.10167696	     -2.55263951	      0.92025389	      0.19044661	     13.38488677	      3.53027034	     -9.25932865	      0.18986697	      4.75241133	      0.98718535	      0.00000000	    -17.89665498	      5.05658623	     -1.67063500	    -10.99645485	     15.84626425	      1.04893720	      0.00000000	    -22.98580780	      0.89498223	     -6.95966500
      5.66000000	      5.99302284	      0.56041988	      1.09842889	     -2.54222165	      0.92021257	      0.19142731	     13.15437770	      3.72534036	     -9.08640111	     -0.70737967	      3.78395338	      0.10712945	      0.00000000	    -18.32382767	      4.76085550	     -1.69022983	    -11.65201484	     15.32121055	      1.16752316	      0.00000000	    -22.95796090	      1.10228429	     -6.91450292
      5.67000000	      6.05570593	      0.34716951	      1.03860490	     -2.53168844	      0.92035785	      0.19255142	     12.89762066	      4.00569171	     -8.67063534	     -1.43568926	      2.52767483	     -0.90534987	      0.00000000	    -18.63560933	      4.39521604	     -1.96087059	    -12.44710102	     14.69824121	      1.50837516	      0.00000000	    -22.88242437	      1.34917722	     -6.79811484
      5.68000000	      6.14692618	      0.05826953	      0.94300736	     -2.52104351	      0.92079577	      0.19375168	     12.57642461	      4.37734704	     -8.20069534	     -2.05117582	      1.12877064	     -1.85397325	      0.00000000	    -18.92720507	      3.95273037	     -2.27990776	    -13.32830319	     13.98648952	      1.90162125	      0.00000000	    -22.82451138	      1.67536051	     -6.60385566
      5.69000000	      6.29452931	     -0.29549519	      0.83086347	     -2.51032195	      0.92156104	      0.19498962	     12.18069718	      4.81643356	     -7.73649761	     -2.62796528	     -0.19036300	     -2.61214830	      0.00000000	    -19.18244761	      3.43067588	     -2.73795888	    -14.37134888	     13.16535930	      2.36606529	      0.00000000	    -22.83024521	      2.07666805	     -6.40200699
      5.70000000	      6.42942598	     -0.66427361	      0.65754482	     -2.49957290	      0.92252541	      0.19631379	     11.81556428	      5.26989578	     -7.20104049	     -3.26696422	     -1.37413997	     -3.18236352	      0.00000000	    -19.31276668	      2.89856792	     -3.32289928	    -15.59567368	     12.21280940	      2.89175973	      0.00000000	    -22.81175396	      2.47282790	     -6.12644070
      5.71000000	      6.55447854	     -1.02363896	      0.44142782	     -2.48885074	      0.92364804	      0.19769347	     11.49215137	      5.70228821	     -6.73315212	     -4.02198502	     -2.22261125	     -3.47419226	      0.00000000	    -19.29583833	      2.37178185	     -4.02237617	    -17.03397105	     11.07794532	      3.39753138	      0.00000000	    -22.78679581	      2.84516127	     -5.82939625
      5.72000000	      6.66839379	     -1.36632403	      0.19210705	     -2.47819305	      0.92488177	      0.19912135	     11.19932196	      6.10377272	     -6.38081967	     -4.88351028	     -2.65992084	     -3.45719359	      0.00000000	    -19.12179892	      1.85046228	     -4.80247941	    -18.68714009	      9.71969745	      3.82715382	      0.00000000	    -22.75666009	      3.18828285	     -5.52039577
      5.73000000	      6.76049912	     -1.68161764	     -0.07469109	     -2.46767013	      0.92616217	      0.20060486	     10.93022283	      6.46463540	     -6.18853000	     -5.80178766	     -2.71343199	     -3.28353770	      0.00000000	    -18.75796094	      1.32296531	     -5.67952152	    -20.57444473	      8.13135265	      4.21072781	      0.00000000	    -22.72789668	      3.48420139	     -5.22143430
      5.74000000	      6.81455608	     -1.97712277	     -0.35749450	     -2.45732975	      0.92743402	      0.20213519	     10.68461097	      6.79262259	     -6.18635837	     -6.72622211	     -2.36761338	     -2.85773803	      0.00000000	    -18.19424211	      0.77766542	     -6.60155843	    -22.66430113	      6.27216604	      4.48967262	      0.00000000	    -22.68620439	      3.74821059	     -4.90692203
      5.75000000	      6.83007073	     -2.25972627	     -0.60352854	     -2.44720394	      0.92869489	      0.20361359	     10.44025310	      7.07632374	     -6.58756231	     -7.58359344	     -1.64357542	     -1.89805142	      0.00000000	    -17.43832318	      0.20695370	     -7.40404099	    -24.91696245	      4.05087946	      4.50102371	      0.00000000	    -22.63719955	      4.00598600	     -4.64314312
      5.76000000	      6.82402575	     -2.52733772	     -0.84702262	     -2.43731115	      0.92990219	      0.20509190	     10.14000420	      7.35162618	     -6.91220654	     -8.29901546	     -0.76706001	     -1.08356844	      0.00000000	    -16.53863400	     -0.36837100	     -8.08308458	    -27.26998920	      1.48520216	      4.15532207	      0.00000000	    -22.61084468	      4.23927835	     -4.35219275
      5.77000000	      6.82579400	     -2.80286299	     -1.04435301	     -2.42765059	      0.93111378	      0.20647864	      9.75966386	      7.62141801	     -7.44129498	     -8.86082387	      0.16268810	     -0.06934182	      0.00000000	    -15.53746815	     -0.97951812	     -8.59127809	    -29.69460222	     -1.36350362	      3.63404504	      0.00000000	    -22.64216443	      4.49794928	     -4.04593357
      5.78000000	      6.80866398	     -3.06070525	     -1.20357445	     -2.41822438	      0.93225866	      0.20779088	      9.31939254	      7.88521138	     -7.87807712	     -9.25212241	      1.11210790	      0.85484269	      0.00000000	    -14.42210280	     -1.57368066	     -8.86495800	    -32.15898198	     -4.39456408	      2.84722564	      0.00000000	    -22.70220554	      4.73486268	     -3.76691393
      5.79000000	      6.79464361	     -3.28232063	     -1.32062998	     -2.40903677	      0.93336439	      0.20898136	      8.80983806	      8.12428578	     -8.20441470	     -9.49104484	      2.01808521	      1.56496347	      0.00000000	    -13.22879896	     -2.11437275	     -8.90096326	    -34.63214337	     -7.46580202	      1.84911236	      0.00000000	    -22.81274545	      4.94464323	     -3.51447173
      5.80000000	      6.79741156	     -3.49870408	     -1.37421890	     -2.40003502	      0.93448011	      0.21003442	      8.22990678	      8.35299171	     -8.66447311	     -9.59629628	      2.84670786	      2.49157015	      0.00000000	    -11.98328975	     -2.63237270	     -8.69804083	    -37.10733482	    -10.35847502	      0.89278323	      0.00000000	    -22.97012342	      5.15926842	     -3.25248183
